# xmcd CD database file
#
# Track frame offsets:
#	150
#	25688
#	64401
#	84229
#	113755
#	153062
#	170788
#	184173
#	202024
#	219953
#
# Disc length: 3395 seconds
#
# Revision: 0
# Processed by: cddbd v1.4PL0 Copyright (c) Steve Scherf et al.
# Submitted via: CDex 1.50beta9
#
DISCID=800d410a
DTITLE=Zsolt Kaltenecker - Wanderlust
DYEAR=2002
DGENRE=Jazz
TTITLE0=Still Around
TTITLE1=Play
TTITLE2=Toccata
TTITLE3=Gray Clouds
TTITLE4=Kharon
TTITLE5=Time of Peace
TTITLE6=Las Mananitas
TTITLE7=A Reason to Wake Up
TTITLE8=Strange Boogie Things
TTITLE9=Awakening
EXTD=YEAR: 2002
EXTT0=
EXTT1=
EXTT2=
EXTT3=
EXTT4=
EXTT5=
EXTT6=
EXTT7=
EXTT8=
EXTT9=
PLAYORDER=
